<svg width="800px" height="800px" viewBox="0 0 24 24" version="1.1" xml:space="preserve" xmlns="http://www.w3.org/2000/svg">

<g id="_icons">

<path d="M9,3C8.4,3,8,3.4,8,4v1H5C4.4,5,4,5.4,4,6s0.4,1,1,1h1v12c0,1.1,0.9,2,2,2h8c1.1,0,2-0.9,2-2V7h1c0.6,0,1-0.4,1-1
  s-0.4-1-1-1h-3V4c0-0.6-0.4-1-1-1H9z M10,5h4v1h-4V5z M7,7h10v12H7V7z M10,10c-0.6,0-1,0.4-1,1v5c0,0.6,0.4,1,1,1s1-0.4,1-1v-5
  C11,10.4,10.6,10,10,10z M14,10c-0.6,0-1,0.4-1,1v5c0,0.6,0.4,1,1,1s1-0.4,1-1v-5C15,10.4,14.6,10,14,10z"/>

</g>

</svg>
